<svg width="512" height="512" viewBox="0 0 512 512" fill="none" xmlns="http://www.w3.org/2000/svg">
<rect width="512" height="512" rx="120" fill="#1E293B"/>
<path d="M387.192 231.188L365.958 209.954L377.333 198.2L328.8 149.667L317.046 161.042L295.433 139.429L306.808 127.675C312.622 121.861 319.826 119.017 328.421 119.144C337.015 119.27 344.219 122.24 350.033 128.054L398.946 176.967C404.76 182.781 407.667 189.922 407.667 198.39C407.667 206.858 404.76 213.999 398.946 219.813L387.192 231.188ZM205.192 413.567C199.378 419.381 192.237 422.288 183.769 422.288C175.301 422.288 168.16 419.381 162.346 413.567L113.433 364.654C107.619 358.84 104.713 351.699 104.713 343.231C104.713 334.763 107.619 327.622 113.433 321.808L124.808 310.433L146.421 332.046L134.667 343.421L183.579 392.333L194.954 380.579L216.567 402.192L205.192 413.567ZM355.721 286.167L377.333 264.554L262.446 149.667L240.833 171.279L355.721 286.167ZM249.554 392.333L271.167 370.342L156.658 255.833L134.667 277.446L249.554 392.333ZM247.279 303.608L288.988 262.279L264.721 238.013L223.392 279.721L247.279 303.608ZM271.167 413.567C265.353 419.381 258.149 422.288 249.554 422.288C240.96 422.288 233.756 419.381 227.942 413.567L113.433 299.058C107.619 293.244 104.713 286.04 104.713 277.446C104.713 268.851 107.619 261.647 113.433 255.833L135.046 234.221C140.86 228.407 148.001 225.5 156.469 225.5C164.937 225.5 172.078 228.407 177.892 234.221L201.779 258.108L243.488 216.4L219.6 192.892C213.786 187.078 210.879 179.874 210.879 171.279C210.879 162.685 213.786 155.481 219.6 149.667L241.213 128.054C247.026 122.24 254.167 119.333 262.635 119.333C271.103 119.333 278.244 122.24 284.058 128.054L398.946 242.942C404.76 248.756 407.667 255.897 407.667 264.365C407.667 272.833 404.76 279.974 398.946 285.788L377.333 307.4C371.519 313.214 364.315 316.121 355.721 316.121C347.126 316.121 339.922 313.214 334.108 307.4L310.6 283.513L268.892 325.221L292.779 349.108C298.593 354.922 301.5 362.063 301.5 370.531C301.5 378.999 298.593 386.14 292.779 391.954L271.167 413.567Z" fill="#E3E3E3"/>
</svg>
